<svg xmlns="http://www.w3.org/2000/svg" width="400" height="400" viewBox="0 0 200 200">
  <defs>
    <linearGradient id="g1" x1="0" x2="1">
      <stop offset="0%" stop-color="#FFD764"/>
      <stop offset="100%" stop-color="#FF8AB6"/>
    </linearGradient>
  </defs>
  <rect width="200" height="200" rx="20" fill="#dff7ff"/>
  <g transform="translate(30,30)">
    <rect x="20" y="10" width="120" height="90" rx="15" fill="#8ad8ff" stroke="#2986cc" stroke-width="3"/>
    <circle cx="40" cy="50" r="12" fill="#fff" stroke="#2f5a7a" stroke-width="2"/>
    <circle cx="100" cy="50" r="12" fill="#fff" stroke="#2f5a7a" stroke-width="2"/>
    <circle cx="40" cy="50" r="5" fill="#2f5a7a"/>
    <circle cx="100" cy="50" r="5" fill="#2f5a7a"/>
    <rect x="58" y="70" width="24" height="8" rx="4" fill="#2f5a7a"/>
    <rect x="45" y="-6" width="50" height="12" rx="6" fill="url(#g1)" stroke="#ff7aa0" stroke-width="2" />
    <rect x="-10" y="35" width="20" height="40" rx="6" fill="#ffcc80" stroke="#e08a00" stroke-width="2"/>
    <rect x="150" y="35" width="20" height="40" rx="6" fill="#ffcc80" stroke="#e08a00" stroke-width="2"/>
    <rect x="5" y="95" width="130" height="12" rx="6" fill="#ffdfe8"/>
    <g transform="translate(10,105)">
      <rect x="0" y="0" width="20" height="10" rx="3" fill="#fff"/>
      <rect x="26" y="0" width="20" height="10" rx="3" fill="#fff"/>
      <rect x="52" y="0" width="20" height="10" rx="3" fill="#fff"/>
    </g>
  </g>
  <text x="100" y="185" font-family="Verdana" font-size="14" text-anchor="middle" fill="#2f5a7a">Kids Programming School</text>
</svg>